<svg width="800" height="500" viewBox="0 0 800 500" xmlns="http://www.w3.org/2000/svg">
  <defs>
    <linearGradient id="bgGradient" x1="0%" y1="0%" x2="100%" y2="100%">
      <stop offset="0%" style="stop-color:#4a5568;stop-opacity:1" />
      <stop offset="50%" style="stop-color:#2d3748;stop-opacity:1" />
      <stop offset="100%" style="stop-color:#1a202c;stop-opacity:1" />
    </linearGradient>
    <linearGradient id="churchGradient" x1="0%" y1="0%" x2="100%" y2="100%">
      <stop offset="0%" style="stop-color:#e2e8f0;stop-opacity:1" />
      <stop offset="100%" style="stop-color:#cbd5e0;stop-opacity:1" />
    </linearGradient>
    <linearGradient id="roofGradient" x1="0%" y1="0%" x2="100%" y2="100%">
      <stop offset="0%" style="stop-color:#68b080;stop-opacity:1" />
      <stop offset="100%" style="stop-color:#4a8a60;stop-opacity:1" />
    </linearGradient>
    <pattern id="bricks" patternUnits="userSpaceOnUse" width="20" height="10">
      <rect width="20" height="10" fill="none" stroke="#a0aec0" stroke-width="0.5" opacity="0.3" />
    </pattern>
  </defs>

  <!-- Background -->
  <rect width="800" height="500" fill="url(#bgGradient)" />

  <!-- Ground -->
  <rect x="0" y="400" width="800" height="100" fill="#2d3748" />

  <!-- Church Building -->
  <g transform="translate(400, 200)">
    <!-- Main building -->
    <rect x="-80" y="-60" width="160" height="120" fill="url(#churchGradient)" rx="5" />
    <rect x="-80" y="-60" width="160" height="120" fill="url(#bricks)" rx="5" />

    <!-- Roof -->
    <polygon points="-100,-60 0,-120 100,-60" fill="url(#roofGradient)" />

    <!-- Bell tower -->
    <rect x="-15" y="-180" width="30" height="120" fill="url(#churchGradient)" rx="3" />
    <polygon points="-20,-180 0,-210 20,-180" fill="url(#roofGradient)" />

    <!-- Cross on tower -->
    <rect x="-2" y="-200" width="4" height="20" fill="#d4af37" />
    <rect x="-8" y="-195" width="16" height="4" fill="#d4af37" />

    <!-- Windows -->
    <rect x="-60" y="-40" width="15" height="20" fill="#2d3748" opacity="0.6" rx="2" />
    <rect x="-40" y="-40" width="15" height="20" fill="#2d3748" opacity="0.6" rx="2" />
    <rect x="25" y="-40" width="15" height="20" fill="#2d3748" opacity="0.6" rx="2" />
    <rect x="45" y="-40" width="15" height="20" fill="#2d3748" opacity="0.6" rx="2" />

    <!-- Door -->
    <rect x="-10" y="20" width="20" height="40" fill="#4a5568" rx="2" />
    <circle cx="0" cy="35" r="1" fill="#d4af37" />
  </g>

  <!-- People silhouettes -->
  <g transform="translate(300, 350)" opacity="0.7">
    <circle cx="0" cy="-20" r="8" fill="white" />
    <rect x="-6" y="-12" width="12" height="20" fill="white" rx="6" />
    <rect x="-8" y="8" width="4" height="15" fill="white" rx="2" />
    <rect x="4" y="8" width="4" height="15" fill="white" rx="2" />
  </g>

  <g transform="translate(350, 360)" opacity="0.6">
    <circle cx="0" cy="-18" r="7" fill="white" />
    <rect x="-5" y="-10" width="10" height="18" fill="white" rx="5" />
    <rect x="-6" y="8" width="3" height="12" fill="white" rx="1" />
    <rect x="3" y="8" width="3" height="12" fill="white" rx="1" />
  </g>

  <g transform="translate(450, 355)" opacity="0.8">
    <circle cx="0" cy="-22" r="9" fill="white" />
    <rect x="-7" y="-13" width="14" height="22" fill="white" rx="7" />
    <rect x="-9" y="9" width="5" height="18" fill="white" rx="2" />
    <rect x="4" y="9" width="5" height="18" fill="white" rx="2" />
  </g>

  <g transform="translate(500, 365)" opacity="0.5">
    <circle cx="0" cy="-16" r="6" fill="white" />
    <rect x="-4" y="-8" width="8" height="16" fill="white" rx="4" />
    <rect x="-5" y="8" width="2" height="10" fill="white" rx="1" />
    <rect x="3" y="8" width="2" height="10" fill="white" rx="1" />
  </g>

  <!-- Musical notes -->
  <g fill="white" opacity="0.4">
    <g transform="translate(150, 100)">
      <circle cx="0" cy="0" r="3" />
      <line x1="3" y1="0" x2="3" y2="-20" stroke="white" stroke-width="2" />
    </g>
    <g transform="translate(180, 80)">
      <circle cx="0" cy="0" r="3" />
      <line x1="3" y1="0" x2="3" y2="-25" stroke="white" stroke-width="2" />
    </g>
    <g transform="translate(650, 120)">
      <circle cx="0" cy="0" r="3" />
      <line x1="3" y1="0" x2="3" y2="-18" stroke="white" stroke-width="2" />
    </g>
  </g>

  <!-- Clock showing 7:00 -->
  <g transform="translate(400, 100)" opacity="0.6">
    <circle cx="0" cy="0" r="25" fill="white" opacity="0.9" />
    <circle cx="0" cy="0" r="23" fill="#2d3748" />
    <line x1="0" y1="0" x2="0" y2="-15" stroke="white" stroke-width="2" />
    <line x1="0" y1="0" x2="12" y2="0" stroke="white" stroke-width="1" />
    <circle cx="0" cy="0" r="2" fill="white" />
  </g>
</svg>
