<svg width="800" height="500" viewBox="0 0 800 500" xmlns="http://www.w3.org/2000/svg">
  <defs>
    <linearGradient id="bgGradient" x1="0%" y1="0%" x2="100%" y2="100%">
      <stop offset="0%" style="stop-color:#667eea;stop-opacity:1" />
      <stop offset="50%" style="stop-color:#764ba2;stop-opacity:1" />
      <stop offset="100%" style="stop-color:#5a4fcf;stop-opacity:1" />
    </linearGradient>
    <radialGradient id="glowGradient" cx="50%" cy="50%" r="50%">
      <stop offset="0%" style="stop-color:#ffffff;stop-opacity:0.8" />
      <stop offset="100%" style="stop-color:#ffffff;stop-opacity:0.1" />
    </radialGradient>
    <pattern id="stars" patternUnits="userSpaceOnUse" width="30" height="30">
      <circle cx="15" cy="15" r="1" fill="white" opacity="0.4" />
    </pattern>
  </defs>

  <!-- Background -->
  <rect width="800" height="500" fill="url(#bgGradient)" />
  <rect width="800" height="500" fill="url(#stars)" />

  <!-- Central glowing circle -->
  <circle cx="400" cy="250" r="120" fill="url(#glowGradient)" />

  <!-- Prayer hands in center -->
  <g transform="translate(400, 250)" fill="white" opacity="0.9">
    <!-- Left hand -->
    <path d="M -40 -20 Q -50 -10 -45 0 Q -40 10 -35 5 Q -30 0 -35 -10 Q -40 -15 -40 -20 Z" />
    <path d="M -35 -25 Q -45 -15 -40 -5 Q -35 5 -30 0 Q -25 -5 -30 -15 Q -35 -20 -35 -25 Z" />
    <path d="M -30 -30 Q -40 -20 -35 -10 Q -30 0 -25 -5 Q -20 -10 -25 -20 Q -30 -25 -30 -30 Z" />
    <path d="M -25 -35 Q -35 -25 -30 -15 Q -25 -5 -20 -10 Q -15 -15 -20 -25 Q -25 -30 -25 -35 Z" />

    <!-- Right hand -->
    <path d="M 40 -20 Q 50 -10 45 0 Q 40 10 35 5 Q 30 0 35 -10 Q 40 -15 40 -20 Z" />
    <path d="M 35 -25 Q 45 -15 40 -5 Q 35 5 30 0 Q 25 -5 30 -15 Q 35 -20 35 -25 Z" />
    <path d="M 30 -30 Q 40 -20 35 -10 Q 30 0 25 -5 Q 20 -10 25 -20 Q 30 -25 30 -30 Z" />
    <path d="M 25 -35 Q 35 -25 30 -15 Q 25 -5 20 -10 Q 15 -15 20 -25 Q 25 -30 25 -35 Z" />
  </g>

  <!-- Floating prayer symbols -->
  <g opacity="0.6">
    <!-- Cross -->
    <g transform="translate(150, 120)">
      <rect x="-3" y="-25" width="6" height="50" fill="white" rx="3" />
      <rect x="-25" y="-3" width="50" height="6" fill="white" rx="3" />
    </g>

    <!-- Heart -->
    <g transform="translate(650, 100)">
      <path d="M12,21.35l-1.45-1.32C5.4,15.36,2,12.28,2,8.5 C2,5.42,4.42,3,7.5,3c1.74,0,3.41,0.81,4.5,2.09C13.09,3.81,14.76,3,16.5,3 C19.58,3,22,5.42,22,8.5c0,3.78-3.4,6.86-8.55,11.54L12,21.35z" fill="white" transform="scale(1.5)" />
    </g>

    <!-- Dove -->
    <g transform="translate(200, 350)" fill="white" opacity="0.7">
      <ellipse cx="0" cy="0" rx="15" ry="8" transform="rotate(-20)" />
      <ellipse cx="-5" cy="-3" rx="3" ry="2" fill="white" />
      <path d="M 0 -5 Q 5 -10 10 -5" stroke="white" stroke-width="2" fill="none" />
      <path d="M 0 -5 Q -5 -10 -10 -5" stroke="white" stroke-width="2" fill="none" />
    </g>

    <!-- Bible -->
    <g transform="translate(600, 350)" fill="white" opacity="0.8">
      <rect x="-15" y="-20" width="30" height="40" rx="3" />
      <rect x="-12" y="-17" width="24" height="34" fill="#667eea" opacity="0.3" rx="2" />
      <line x1="-8" y1="-10" x2="8" y2="-10" stroke="white" stroke-width="1" />
      <line x1="-8" y1="-5" x2="6" y2="-5" stroke="white" stroke-width="1" />
      <line x1="-8" y1="0" x2="7" y2="0" stroke="white" stroke-width="1" />
      <line x1="-8" y1="5" x2="5" y2="5" stroke="white" stroke-width="1" />
      <line x1="-8" y1="10" x2="8" y2="10" stroke="white" stroke-width="1" />
    </g>
  </g>

  <!-- Rays of light -->
  <g stroke="white" stroke-width="2" opacity="0.3">
    <line x1="400" y1="50" x2="420" y2="70" />
    <line x1="400" y1="50" x2="380" y2="70" />
    <line x1="400" y1="50" x2="410" y2="80" />
    <line x1="400" y1="50" x2="390" y2="80" />
    <line x1="400" y1="50" x2="400" y2="90" />

    <line x1="50" y1="250" x2="70" y2="230" />
    <line x1="50" y1="250" x2="70" y2="270" />
    <line x1="50" y1="250" x2="80" y2="250" />

    <line x1="750" y1="250" x2="730" y2="230" />
    <line x1="750" y1="250" x2="730" y2="270" />
    <line x1="750" y1="250" x2="720" y2="250" />
  </g>

  <!-- Clock showing 9:00 -->
  <g transform="translate(100, 100)" opacity="0.7">
    <circle cx="0" cy="0" r="20" fill="white" opacity="0.9" />
    <circle cx="0" cy="0" r="18" fill="#667eea" />
    <line x1="0" y1="0" x2="0" y2="-12" stroke="white" stroke-width="2" />
    <line x1="0" y1="0" x2="8" y2="0" stroke="white" stroke-width="1" />
    <circle cx="0" cy="0" r="2" fill="white" />
  </g>
</svg>
