<svg width="800" height="500" viewBox="0 0 800 500" xmlns="http://www.w3.org/2000/svg">
  <defs>
    <linearGradient id="bgGradient" x1="0%" y1="0%" x2="100%" y2="100%">
      <stop offset="0%" style="stop-color:#2c5aa0;stop-opacity:1" />
      <stop offset="50%" style="stop-color:#1e3d72;stop-opacity:1" />
      <stop offset="100%" style="stop-color:#0f1f3a;stop-opacity:1" />
    </linearGradient>
    <linearGradient id="bookGradient" x1="0%" y1="0%" x2="100%" y2="100%">
      <stop offset="0%" style="stop-color:#d4af37;stop-opacity:1" />
      <stop offset="100%" style="stop-color:#b8941f;stop-opacity:1" />
    </linearGradient>
    <pattern id="stars" patternUnits="userSpaceOnUse" width="40" height="40">
      <circle cx="20" cy="20" r="1" fill="white" opacity="0.3" />
    </pattern>
  </defs>

  <!-- Background -->
  <rect width="800" height="500" fill="url(#bgGradient)" />
  <rect width="800" height="500" fill="url(#stars)" />

  <!-- Decorative clouds -->
  <g opacity="0.2">
    <ellipse cx="150" cy="100" rx="40" ry="20" fill="white" />
    <ellipse cx="170" cy="100" rx="30" ry="15" fill="white" />
    <ellipse cx="130" cy="100" rx="30" ry="15" fill="white" />
  </g>

  <g opacity="0.15" transform="translate(600, 80)">
    <ellipse cx="0" cy="0" rx="40" ry="20" fill="white" />
    <ellipse cx="20" cy="0" rx="30" ry="15" fill="white" />
    <ellipse cx="-20" cy="0" rx="30" ry="15" fill="white" />
  </g>

  <!-- Open Bible -->
  <g transform="translate(400, 250)">
    <!-- Left page -->
    <rect x="-120" y="-80" width="100" height="160" fill="white" opacity="0.95" rx="5" />
    <rect x="-115" y="-75" width="90" height="150" fill="url(#bookGradient)" opacity="0.8" rx="3" />

    <!-- Right page -->
    <rect x="20" y="-80" width="100" height="160" fill="white" opacity="0.95" rx="5" />
    <rect x="25" y="-75" width="90" height="150" fill="url(#bookGradient)" opacity="0.8" rx="3" />

    <!-- Bible lines -->
    <g stroke="white" stroke-width="1" opacity="0.7">
      <line x1="-110" y1="-60" x2="-30" y2="-60" />
      <line x1="-110" y1="-50" x2="-50" y2="-50" />
      <line x1="-110" y1="-40" x2="-40" y2="-40" />
      <line x1="-110" y1="-30" x2="-60" y2="-30" />
      <line x1="-110" y1="-20" x2="-45" y2="-20" />
      <line x1="-110" y1="-10" x2="-35" y2="-10" />
      <line x1="-110" y1="0" x2="-55" y2="0" />
      <line x1="-110" y1="10" x2="-40" y2="10" />
      <line x1="-110" y1="20" x2="-50" y2="20" />
      <line x1="-110" y1="30" x2="-45" y2="30" />
      <line x1="-110" y1="40" x2="-35" y2="40" />
      <line x1="-110" y1="50" x2="-60" y2="50" />
      <line x1="-110" y1="60" x2="-40" y2="60" />
      <line x1="-110" y1="70" x2="-55" y2="70" />
    </g>

    <g stroke="white" stroke-width="1" opacity="0.7">
      <line x1="30" y1="-60" x2="110" y2="-60" />
      <line x1="30" y1="-50" x2="70" y2="-50" />
      <line x1="30" y1="-40" x2="80" y2="-40" />
      <line x1="30" y1="-30" x2="90" y2="-30" />
      <line x1="30" y1="-20" x2="75" y2="-20" />
      <line x1="30" y1="-10" x2="85" y2="-10" />
      <line x1="30" y1="0" x2="95" y2="0" />
      <line x1="30" y1="10" x2="80" y2="10" />
      <line x1="30" y1="20" x2="70" y2="20" />
      <line x1="30" y1="30" x2="75" y2="30" />
      <line x1="30" y1="40" x2="85" y2="40" />
      <line x1="30" y1="50" x2="90" y2="50" />
      <line x1="30" y1="60" x2="80" y2="60" />
      <line x1="30" y1="70" x2="95" y2="70" />
    </g>
  </g>

  <!-- Heart symbol -->
  <g transform="translate(200, 150)" opacity="0.4">
    <path d="M12,21.35l-1.45-1.32C5.4,15.36,2,12.28,2,8.5 C2,5.42,4.42,3,7.5,3c1.74,0,3.41,0.81,4.5,2.09C13.09,3.81,14.76,3,16.5,3 C19.58,3,22,5.42,22,8.5c0,3.78-3.4,6.86-8.55,11.54L12,21.35z" fill="white" transform="scale(2)" />
  </g>

  <!-- Cross -->
  <g transform="translate(600, 150)" opacity="0.3">
    <rect x="-6" y="-40" width="12" height="80" fill="white" rx="6" />
    <rect x="-40" y="-6" width="80" height="12" fill="white" rx="6" />
  </g>

  <!-- Rays of light -->
  <g stroke="white" stroke-width="2" opacity="0.2">
    <line x1="400" y1="50" x2="420" y2="70" />
    <line x1="400" y1="50" x2="380" y2="70" />
    <line x1="400" y1="50" x2="410" y2="80" />
    <line x1="400" y1="50" x2="390" y2="80" />
    <line x1="400" y1="50" x2="400" y2="90" />
  </g>
</svg>
