<svg width="800" height="500" viewBox="0 0 800 500" xmlns="http://www.w3.org/2000/svg">
  <defs>
    <linearGradient id="bgGradient" x1="0%" y1="0%" x2="100%" y2="100%">
      <stop offset="0%" style="stop-color:#f093fb;stop-opacity:1" />
      <stop offset="50%" style="stop-color:#f5576c;stop-opacity:1" />
      <stop offset="100%" style="stop-color:#4facfe;stop-opacity:1" />
    </linearGradient>
    <radialGradient id="circleGradient" cx="50%" cy="50%" r="50%">
      <stop offset="0%" style="stop-color:#ffffff;stop-opacity:0.9" />
      <stop offset="100%" style="stop-color:#ffffff;stop-opacity:0.3" />
    </radialGradient>
  </defs>

  <!-- Background -->
  <rect width="800" height="500" fill="url(#bgGradient)" />

  <!-- Decorative circles -->
  <circle cx="150" cy="100" r="60" fill="white" opacity="0.1" />
  <circle cx="650" cy="400" r="80" fill="white" opacity="0.08" />
  <circle cx="700" cy="100" r="40" fill="white" opacity="0.12" />
  <circle cx="100" cy="350" r="50" fill="white" opacity="0.1" />

  <!-- Ministry circles -->
  <g opacity="0.9">
    <!-- Children's Ministry -->
    <circle cx="200" cy="150" r="50" fill="url(#circleGradient)" />
    <g transform="translate(200, 150)" fill="#4facfe">
      <circle cx="0" cy="0" r="8" />
      <circle cx="-15" cy="-10" r="6" />
      <circle cx="15" cy="-10" r="6" />
      <path d="M -20 10 Q 0 25 20 10" stroke="#4facfe" stroke-width="3" fill="none" />
    </g>

    <!-- Youth Ministry -->
    <circle cx="400" cy="200" r="60" fill="url(#circleGradient)" />
    <g transform="translate(400, 200)" fill="#f5576c">
      <rect x="-15" y="-20" width="30" height="40" rx="15" />
      <circle cx="0" cy="-25" r="8" />
      <path d="M -20 20 L -30 30 M 20 20 L 30 30" stroke="#f5576c" stroke-width="3" />
    </g>

    <!-- Women's Ministry -->
    <circle cx="600" cy="150" r="55" fill="url(#circleGradient)" />
    <g transform="translate(600, 150)" fill="#f093fb">
      <circle cx="0" cy="-10" r="10" />
      <ellipse cx="0" cy="5" rx="12" ry="20" />
      <path d="M -15 15 Q 0 30 15 15" stroke="#f093fb" stroke-width="3" fill="none" />
    </g>

    <!-- Men's Ministry -->
    <circle cx="300" cy="350" r="55" fill="url(#circleGradient)" />
    <g transform="translate(300, 350)" fill="#4facfe">
      <circle cx="0" cy="-15" r="10" />
      <rect x="-12" y="-5" width="24" height="35" rx="12" />
      <rect x="-8" y="30" width="5" height="15" rx="2" />
      <rect x="3" y="30" width="5" height="15" rx="2" />
    </g>

    <!-- Worship Ministry -->
    <circle cx="500" cy="350" r="50" fill="url(#circleGradient)" />
    <g transform="translate(500, 350)" fill="#f5576c">
      <rect x="-8" y="-15" width="16" height="30" rx="8" />
      <circle cx="0" cy="-20" r="3" />
      <circle cx="-5" cy="-5" r="2" />
      <circle cx="5" cy="-5" r="2" />
      <circle cx="0" cy="5" r="2" />
    </g>
  </g>

  <!-- Connection lines -->
  <g stroke="white" stroke-width="2" opacity="0.3">
    <line x1="250" y1="150" x2="340" y2="200" />
    <line x1="340" y1="200" x2="545" y2="150" />
    <line x1="340" y1="200" x2="345" y2="295" />
    <line x1="355" y1="295" x2="450" y2="350" />
  </g>

  <!-- Central heart -->
  <g transform="translate(400, 250)" fill="white" opacity="0.8">
    <path d="M12,21.35l-1.45-1.32C5.4,15.36,2,12.28,2,8.5 C2,5.42,4.42,3,7.5,3c1.74,0,3.41,0.81,4.5,2.09C13.09,3.81,14.76,3,16.5,3 C19.58,3,22,5.42,22,8.5c0,3.78-3.4,6.86-8.55,11.54L12,21.35z" transform="scale(3)" />
  </g>

  <!-- Floating elements -->
  <g opacity="0.6">
    <!-- Music notes -->
    <g transform="translate(100, 200)" fill="white">
      <circle cx="0" cy="0" r="3" />
      <line x1="3" y1="0" x2="3" y2="-15" stroke="white" stroke-width="2" />
    </g>
    <g transform="translate(700, 300)" fill="white">
      <circle cx="0" cy="0" r="3" />
      <line x1="3" y1="0" x2="3" y2="-20" stroke="white" stroke-width="2" />
    </g>

    <!-- Stars -->
    <g transform="translate(150, 300)" fill="white">
      <path d="M0,-10 L3,-3 L10,-3 L5,2 L7,9 L0,6 L-7,9 L-5,2 L-10,-3 L-3,-3 Z" />
    </g>
    <g transform="translate(650, 200)" fill="white">
      <path d="M0,-8 L2,-2 L8,-2 L4,1 L6,7 L0,5 L-6,7 L-4,1 L-8,-2 L-2,-2 Z" />
    </g>
  </g>
</svg>
