<svg width="800" height="500" viewBox="0 0 800 500" xmlns="http://www.w3.org/2000/svg">
  <defs>
    <linearGradient id="bgGradient" x1="0%" y1="0%" x2="100%" y2="100%">
      <stop offset="0%" style="stop-color:#68b080;stop-opacity:1" />
      <stop offset="50%" style="stop-color:#5a9c70;stop-opacity:1" />
      <stop offset="100%" style="stop-color:#4a8a60;stop-opacity:1" />
    </linearGradient>
    <linearGradient id="crossGradient" x1="0%" y1="0%" x2="100%" y2="100%">
      <stop offset="0%" style="stop-color:#ffffff;stop-opacity:0.9" />
      <stop offset="100%" style="stop-color:#f0f8f0;stop-opacity:0.8" />
    </linearGradient>
    <pattern id="dots" patternUnits="userSpaceOnUse" width="20" height="20">
      <circle cx="10" cy="10" r="1" fill="white" opacity="0.1" />
    </pattern>
  </defs>

  <!-- Background -->
  <rect width="800" height="500" fill="url(#bgGradient)" />
  <rect width="800" height="500" fill="url(#dots)" />

  <!-- Decorative circles -->
  <circle cx="100" cy="100" r="60" fill="white" opacity="0.1" />
  <circle cx="700" cy="400" r="80" fill="white" opacity="0.08" />
  <circle cx="650" cy="100" r="40" fill="white" opacity="0.12" />
  <circle cx="150" cy="350" r="50" fill="white" opacity="0.1" />

  <!-- Cross in the center -->
  <g transform="translate(400, 250)">
    <rect x="-8" y="-60" width="16" height="120" fill="url(#crossGradient)" rx="8" />
    <rect x="-60" y="-8" width="120" height="16" fill="url(#crossGradient)" rx="8" />
    <circle cx="0" cy="0" r="20" fill="white" opacity="0.9" />
  </g>

  <!-- Decorative elements -->
  <path d="M 50 200 Q 100 150 150 200 T 250 200" stroke="white" stroke-width="2" fill="none" opacity="0.3" />
  <path d="M 550 300 Q 600 250 650 300 T 750 300" stroke="white" stroke-width="2" fill="none" opacity="0.3" />

  <!-- Church building silhouette -->
  <g transform="translate(100, 200)" opacity="0.2">
    <rect x="0" y="40" width="60" height="60" fill="white" />
    <polygon points="30,0 0,40 60,40" fill="white" />
    <rect x="25" y="60" width="10" height="40" fill="white" />
  </g>

  <g transform="translate(620, 180)" opacity="0.15">
    <rect x="0" y="40" width="60" height="60" fill="white" />
    <polygon points="30,0 0,40 60,40" fill="white" />
    <rect x="25" y="60" width="10" height="40" fill="white" />
  </g>
</svg>
